<svg xmlns="http://www.w3.org/2000/svg" aria-hidden="true" style="position:absolute;width:0;height:0;overflow:hidden">
  <defs>
    <symbol id="icon-company-logo" viewBox="0 0 144 32">
      <path d="M14.427.07c8.751-.817 16.506 5.621 17.313 14.373s-5.638 16.5-14.391 17.299C8.609 32.54.874 26.106.068 17.366S5.688.886 14.427.07M17.6 30.059c7.813-.938 13.384-8.035 12.442-15.847S21.999.833 14.188 1.78C6.383 2.727.822 9.819 1.764 17.624c.942 7.806 8.03 13.371 15.836 12.435"/>
      <path d="m22.129 7.629 1.831-.013q.053 7.925.008 15.851l-1.893.024-.003-9.927-.009-2.718c-1.057 2.007-2.258 3.936-3.401 5.893-.725 1.241-1.398 2.665-2.295 3.781a1.2 1.2 0 0 1-.669.033 1 1 0 0 1-.281-.118c-.484-.386-5.034-8.379-5.76-9.591.187 1.437.069 3.006.069 4.456l-.005 8.152-1.936.007c.06-5.275-.035-10.553.016-15.83l2.108.011c.937 1.676 1.943 3.316 2.915 4.973 1.033 1.76 2.039 3.541 3.136 5.262 1.116-2.039 2.365-4.015 3.565-6.006.85-1.411 1.654-2.896 2.606-4.239zM119.051 11.394c.373-.025.757-.035 1.131-.028 1.395.025 2.822.771 3.776 1.76 1.191 1.233 1.744 2.952 1.704 4.648-.04 1.726-.688 3.366-1.957 4.55-1.126 1.049-2.568 1.61-4.112 1.552-1.766-.066-2.938-.811-4.123-2.075-.046.724-.032 1.456-.039 2.182a328 328 0 0 1-.005 4.323 9.4 9.4 0 0 1-2.02-.019c.11-2.231.013-4.515.014-6.752 0-3.327.052-6.663-.023-9.989l1.999-.008c-.038.742-.029 1.492-.04 2.236 1.082-1.351 1.986-2.003 3.696-2.379zm.866 10.697c1.243-.233 2.205-.74 2.934-1.812a4.8 4.8 0 0 0 .71-3.633c-.223-1.12-.887-2.179-1.862-2.791-.768-.482-1.598-.614-2.486-.589-1.232.233-2.23.671-2.968 1.745-.696 1.011-.996 2.451-.761 3.654a4.3 4.3 0 0 0 1.897 2.805c.788.496 1.621.639 2.535.623zM81.755 6.381c.326.335.427 1.218.621 1.691-2.097.88-5.138.699-6.825 2.31-1.009.964-1.249 2.296-1.271 3.625.902-1.115 1.892-2.018 3.371-2.265 1.495-.25 3.08.039 4.306.952 1.317.981 2.051 2.402 2.271 4.013.253 1.851-.208 3.596-1.344 5.074-.823.913-1.779 1.587-2.984 1.882-1.526.374-3.268.18-4.612-.654-1.534-.953-2.416-2.524-2.799-4.253-.572-2.584-.459-6.445 1.03-8.739 1.313-2.023 3.297-2.424 5.5-2.948.915-.218 1.817-.485 2.735-.688zm-3.487 15.721c1.299-.192 2.265-.503 3.072-1.619.792-1.094 1.048-2.475.802-3.79-.198-1.061-.757-2.032-1.668-2.632a3.7 3.7 0 0 0-1.874-.612c-1.264.141-2.303.403-3.144 1.445-.789.979-1.127 2.3-.953 3.54.159 1.131.777 2.22 1.706 2.894.629.456 1.303.656 2.058.773zM53.337 7.186c.738-.074 1.506-.039 2.249-.044-.1 5.436.019 10.889-.012 16.328l-1.958-.02.003-9.617c-.005-1.102-.028-2.206.039-3.306-1.804 3.332-3.432 6.811-5.408 10.042l-1.272-.007c-1.946-3.191-3.566-6.63-5.366-9.909.07 1.504.023 3.031.024 4.537l.004 8.281c-.653-.017-1.303.026-1.956-.005l.001-9.906c.001-2.129-.04-4.272.076-6.399l2.178.001c.619 1.062 1.145 2.199 1.708 3.293 1.305 2.537 2.597 5.101 4.005 7.582 2.069-3.508 3.707-7.287 5.685-10.851M63.406 11.398q.449-.024.897-.034c1.567-.026 3.129.402 4.259 1.538 1.512 1.519 1.662 3.434 1.662 5.458-3.263.042-6.53-.003-9.793.012.101.538.202 1.054.458 1.545a4.1 4.1 0 0 0 2.455 2.04c1.268.384 2.544.159 3.686-.47.383-.26.733-.565 1.089-.859.512.293 1.031.537 1.572.771-.805 1.086-1.843 1.878-3.157 2.238-1.682.46-3.732.28-5.247-.611a5.68 5.68 0 0 1-2.64-3.572c-.448-1.803-.198-3.775.781-5.361.943-1.529 2.266-2.284 3.978-2.693zm-2.954 5.437q2.424-.02 4.848-.014l3.021.002c-.294-1.24-.59-2.389-1.743-3.115-.844-.531-1.868-.612-2.839-.531-1.049.242-1.933.72-2.532 1.644-.405.626-.585 1.299-.755 2.013zM103.994 11.394q.44-.022.88-.029c1.563-.017 3.126.447 4.241 1.587 1.468 1.501 1.604 3.417 1.596 5.399-3.248.049-6.505.01-9.756.018.044.593.147 1.103.425 1.636.512.987 1.361 1.641 2.422 1.951 1.419.417 2.71.109 3.963-.587.306-.211.578-.469.857-.715.515.277 1.038.502 1.58.718-.849 1.117-1.907 1.926-3.28 2.274-1.707.433-3.666.267-5.189-.652-1.352-.817-2.279-2.162-2.635-3.695-.406-1.75-.123-3.763.856-5.281s2.316-2.251 4.04-2.624m-3.057 5.437c1.547-.004 3.096-.026 4.643-.009l3.279-.002c-.34-1.275-.697-2.517-1.93-3.218-.763-.435-1.694-.509-2.556-.422-1.023.169-1.888.554-2.523 1.41-.504.677-.718 1.434-.912 2.241zM137.736 11.566c1.978-.093 3.987-.026 5.969-.019-.101 3.963-.011 7.952-.013 11.918l-2.039-.022-.002-4.071c-.974-.006-2.256-.196-3.184.025-.291.069-.342.215-.505.441-.688 1.22-1.454 2.398-2.144 3.62q-1.156.026-2.313.006c.755-1.416 1.779-3.218 2.778-4.445a8 8 0 0 1-.352-.182c-.871-.481-1.537-1.254-1.792-2.223-.266-1.011-.122-2.164.42-3.062.729-1.211 1.871-1.676 3.177-1.984zm2.09 6.096c.602-.005 1.216.014 1.817-.03q-.011-2.114.011-4.228c-1.196-.004-2.407-.036-3.601.029-.754.236-1.342.491-1.749 1.217-.27.483-.342 1.12-.16 1.644.176.508.583.864 1.063 1.081.81.366 1.752.294 2.619.287M88.369 11.675c2.582-.093 5.187-.033 7.771-.037l-.012 11.825c-.644-.009-1.29-.037-1.929.051l-.009-10.017-1.095.044c-.978-.048-1.978.016-2.958.039-.027 2.384-.037 7.325-1.706 9.089-.833.879-1.773.97-2.91.979a31 31 0 0 0-.087-1.856c.297-.027.611-.048.901-.121 1.797-.453 1.829-6.392 1.874-7.889.018-.584-.111-1.633.161-2.108zM130.25 11.588l.264-.016c.032.043.077.079.096.129.089.233-.002 10.563-.001 11.757l-1.732.012-.128-.026c-.277-.501.001-10.345-.086-11.833.529.007 1.058-.011 1.586-.024zM128.627 7.128l1.992-.006c-.022.707-.006 1.414.005 2.121l-2.051.016q.045-1.065.054-2.131"/>
    </symbol>
    <symbol id="icon-burger-menu" viewBox="0 0 32 32">
      <path d="M5.333 8h21.333v2.667H5.333zm0 6.667h21.333v2.667H5.333zm0 6.666h21.333V24H5.333z"/>
    </symbol>
    <symbol id="icon-icon-faq" viewBox="0 0 32 32">
      <path d="M23.116 11.47a.25.25 0 0 1 .354 0l.354.354a.25.25 0 0 1 0 .354l-7.646 7.646a.25.25 0 0 1-.354 0l-7.646-7.646a.25.25 0 0 1 0-.354l.354-.354a.25.25 0 0 1 .354 0l7.116 7.116 7.116-7.116z"/>
    </symbol>
    <symbol id="icon-slider-left" viewBox="0 0 32 32">
      <path fill="#f2f2f2" d="M0 16C0 7.163 7.163 0 16 0s16 7.163 16 16-7.163 16-16 16S0 24.837 0 16" style="fill:var(--color2, #f2f2f2)"/>
      <path fill="none" stroke="#080c09" stroke-width=".667" d="M16 .333C24.652.333 31.667 7.347 31.667 16S24.653 31.667 16 31.667.333 24.653.333 16 7.347.333 16 .333z" style="stroke:var(--color3, #080c09)"/>
      <path fill="#080c09" d="m16.471 19.529-2.862-2.862H20v-1.333h-6.391l2.862-2.862-.943-.943L11.057 16l4.471 4.471.943-.943z" style="fill:var(--color3, #080c09)"/>
    </symbol>
    <symbol id="icon-slider-right" viewBox="0 0 32 32">
      <path fill="#f2f2f2" d="M0 16C0 7.163 7.163 0 16 0s16 7.163 16 16-7.163 16-16 16S0 24.837 0 16" style="fill:var(--color2, #f2f2f2)"/>
      <path fill="none" stroke="#080c09" stroke-width=".667" d="M16 .333C24.652.333 31.667 7.347 31.667 16S24.653 31.667 16 31.667.333 24.653.333 16 7.347.333 16 .333z" style="stroke:var(--color3, #080c09)"/>
      <path fill="#080c09" d="m15.529 19.529.943.943 4.471-4.471-4.471-4.471-.943.943 2.862 2.862H12v1.333h6.391l-2.862 2.862z" style="fill:var(--color3, #080c09)"/>
    </symbol>
    <symbol id="icon-vector" viewBox="0 0 32 32">
      <path d="M14.513 1.037a1.584 1.584 0 0 1 2.973 0l3.246 8.164c.232.583.756.982 1.358 1.032l8.426.707c1.428.12 2.006 1.983.919 2.958l-6.419 5.752a1.73 1.73 0 0 0-.519 1.67l1.961 8.6c.332 1.457-1.183 2.609-2.405 1.828l-7.213-4.609a1.55 1.55 0 0 0-1.679 0l-7.214 4.609c-1.222.781-2.738-.371-2.405-1.828l1.961-8.6a1.73 1.73 0 0 0-.519-1.67l-6.42-5.752c-1.088-.975-.509-2.838.919-2.958l8.426-.707a1.62 1.62 0 0 0 1.358-1.032z"/>
    </symbol>
    <symbol id="icon-vector-1" viewBox="0 0 32 32">
      <path d="m31.829 11.907.128.421a.86.86 0 0 1-.223.893l-7.755 6.989 2.298 10.476a.89.89 0 0 1-.303.893l-.351.253a.72.72 0 0 1-.479.168.74.74 0 0 1-.415-.118l-8.728-5.608-8.68 5.608a.74.74 0 0 1-.415.118.73.73 0 0 1-.479-.168l-.399-.253a.88.88 0 0 1-.303-.893L8.023 20.21.284 13.237a.85.85 0 0 1-.239-.909l.176-.421a.79.79 0 0 1 .702-.589l10.196-.859 3.909-9.92A.815.815 0 0 1 15.794 0h.415a.785.785 0 0 1 .75.539l3.973 9.92 10.196.859a.79.79 0 0 1 .702.589zm-9.255 15.141-1.787-7.882 5.856-5.271-7.675-.64L16 5.744v17.078z"/>
    </symbol>
    <symbol id="icon-x-close" viewBox="0 0 32 32">
      <path d="m21.589 8.459-5.657 5.656-5.656-5.656-1.885 1.885L14.047 16l-5.656 5.656 1.885 1.885 5.656-5.656 5.657 5.656 1.885-1.885L17.818 16l5.656-5.656z"/>
    </symbol>
    <symbol id="icon-youtube" viewBox="0 0 32 32">
      <path fill="#fff" d="M28.791 9.604a3.35 3.35 0 0 0-2.35-2.354C24.353 6.677 16 6.667 16 6.667s-8.352-.009-10.441.539a3.416 3.416 0 0 0-2.354 2.371c-.551 2.088-.556 6.419-.556 6.419s-.005 4.352.541 6.419a3.34 3.34 0 0 0 2.351 2.353c2.109.573 10.44.583 10.44.583s8.353.009 10.441-.537a3.36 3.36 0 0 0 2.356-2.35c.552-2.087.556-6.416.556-6.416s.027-4.353-.543-6.441zM13.328 20.007l.007-8 6.943 4.007z" style="fill:var(--color1, #fff)"/>
    </symbol>
    <symbol id="icon-facebook" viewBox="0 0 32 32">
      <path fill="#fff" d="M29.333 16.406c0-7.409-5.969-13.415-13.333-13.415S2.667 8.997 2.667 16.406c0 6.696 4.876 12.245 11.25 13.252v-9.374h-3.385v-3.878h3.385v-2.955c0-3.362 1.991-5.219 5.036-5.219 1.459 0 2.985.262 2.985.262v3.301h-1.681c-1.656 0-2.173 1.034-2.173 2.095v2.516h3.698l-.591 3.878h-3.107v9.374c6.374-1.006 11.25-6.556 11.25-13.252z" style="fill:var(--color1, #fff)"/>
    </symbol>
    <symbol id="icon-instagram" viewBox="0 0 32 32">
      <path fill="#fff" d="M15.998 6.161c3.206 0 3.585.014 4.846.071 1.172.052 1.804.248 2.226.412.558.216.961.478 1.378.895.422.422.679.82.9 1.378.164.422.361 1.059.412 2.226.056 1.266.071 1.645.071 4.847s-.014 3.585-.071 4.847c-.052 1.172-.248 1.804-.412 2.227a3.7 3.7 0 0 1-.895 1.377c-.422.422-.82.679-1.378.9-.422.164-1.06.361-2.226.412-1.266.056-1.645.071-4.847.071s-3.585-.014-4.847-.071c-1.172-.052-1.804-.248-2.226-.412a3.7 3.7 0 0 1-1.378-.895 3.8 3.8 0 0 1-.9-1.378c-.164-.422-.361-1.06-.412-2.226-.056-1.266-.071-1.645-.071-4.847s.014-3.585.071-4.847c.052-1.172.248-1.804.412-2.226.216-.558.478-.961.895-1.378.422-.422.82-.679 1.378-.9.422-.164 1.059-.361 2.226-.412 1.261-.056 1.641-.071 4.847-.071zm0-2.16c-3.258 0-3.665.014-4.945.071-1.275.056-2.151.262-2.91.558a5.85 5.85 0 0 0-2.127 1.387A5.9 5.9 0 0 0 4.629 8.14c-.295.764-.502 1.636-.558 2.91C4.015 12.335 4 12.742 4 15.999s.014 3.665.071 4.945c.056 1.275.262 2.151.558 2.91a5.9 5.9 0 0 0 1.387 2.127 5.9 5.9 0 0 0 2.123 1.383c.764.295 1.636.502 2.91.558 1.279.056 1.687.071 4.945.071s3.666-.014 4.945-.071c1.275-.056 2.151-.262 2.91-.558.787-.305 1.458-.717 2.123-1.383s1.078-1.336 1.383-2.123c.295-.764.502-1.635.558-2.91.056-1.279.071-1.687.071-4.945s-.014-3.665-.071-4.945c-.056-1.275-.262-2.151-.558-2.91a5.6 5.6 0 0 0-1.373-2.133 5.9 5.9 0 0 0-2.123-1.383c-.764-.295-1.635-.502-2.91-.558-1.284-.061-1.692-.075-4.949-.075L15.999 4z" style="fill:var(--color1, #fff)"/>
      <path fill="#fff" d="M15.998 9.836a6.164 6.164 0 1 0 6.163 6.163 6.164 6.164 0 0 0-6.163-6.163m0 10.161a3.998 3.998 0 1 1 0-7.996 3.998 3.998 0 0 1 0 7.996M23.843 9.591a1.439 1.439 0 1 1-2.877 0 1.439 1.439 0 0 1 2.877 0" style="fill:var(--color1, #fff)"/>
    </symbol>
        <symbol id="icon-star-full" viewBox="0 0 32 32">
      <path d="M14.513 1.037c.55-1.383 2.423-1.383 2.973 0l3.246 8.164c.232.583.756.982 1.358 1.032l8.426.707c1.428.12 2.006 1.983.919 2.958l-6.419 5.752c-.458.411-.659 1.056-.519 1.67l1.961 8.6c.332 1.457-1.183 2.609-2.405 1.828l-7.213-4.609c-.515-.329-1.163-.329-1.679 0l-7.214 4.609c-1.222.781-2.738-.371-2.405-1.828l1.961-8.6c.14-.614-.06-1.259-.519-1.67l-6.42-5.752c-1.088-.975-.509-2.838.919-2.958l8.426-.707c.602-.05 1.126-.449 1.358-1.032l3.246-8.164z"/>
    </symbol>
    <symbol id="icon-star-half" viewBox="0 0 32 32">
      <path d="m31.829 11.907.128.421c.105.318.017.671-.223.893l-7.755 6.989 2.298 10.476c.078.335-.042.686-.303.893l-.351.253c-.136.113-.305.172-.479.168-.146.003-.29-.038-.415-.118l-8.728-5.608-8.68 5.608c-.125.08-.269.121-.415.118-.173.004-.342-.056-.479-.168l-.399-.253c-.262-.206-.381-.558-.303-.893L8.023 20.21.284 13.237c-.252-.22-.348-.583-.239-.909l.176-.421c.093-.333.374-.568.702-.589l10.196-.859 3.909-9.92c.125-.329.43-.544.766-.539h.415c.333-.007.634.209.75.539l3.973 9.92 10.196.859c.328.021.609.257.702.589zm-9.255 15.141-1.787-7.882 5.856-5.271-7.675-.64L16 5.744v17.078l6.574 4.227z"/>
    </symbol>
    <symbol id="icon-left-arrow" viewBox="0 0 32 32">
      <path d="m16.943 23.057-5.724-5.724H24v-2.667H11.219l5.724-5.724-1.885-1.885L6.115 16l8.943 8.943 1.885-1.885z"/>
    </symbol>
    <symbol id="icon-right-arrow" viewBox="0 0 32 32">
      <path d="m15.057 23.057 1.885 1.885 8.943-8.943-8.943-8.943-1.885 1.885 5.724 5.724H8v2.667h12.781l-5.724 5.724z"/>
    </symbol>
  </defs>
</svg>